<svg width="103" height="104" viewBox="0 0 103 104" fill="none" xmlns="http://www.w3.org/2000/svg">
<ellipse cx="51.4023" cy="52" rx="50.7148" ry="52" fill="#DBDAF4"/>
<mask id="path-2-inside-1_8175_18281" fill="white">
<path d="M61.25 71.9355C61.664 71.9355 62 71.5995 62 71.1855V65.493L67.0565 61.53C67.6895 61.026 68.537 60.0375 68.8685 59.2515L72.4385 50.952C72.479 50.859 72.5 50.757 72.5 50.655V43.4265C72.5 42.4935 71.4425 41.805 70.421 41.6805C69.155 41.517 67.5635 42.2055 66.9635 44.601C66.6545 45.8445 66.5855 46.896 66.524 47.823C66.4955 48.2355 66.8075 48.624 67.2215 48.651C67.6355 48.6795 67.991 48.396 68.0165 47.9835C68.078 47.0565 68.1425 46.077 68.42 44.9625C68.609 44.2095 69.014 43.284 69.8795 43.1685C70.4585 43.086 70.943 43.3965 71.0225 43.5375L71 50.5005L67.4885 58.665C67.2695 59.1885 66.5885 59.985 66.1265 60.354L60.7865 64.539C60.605 64.68 60.5 64.8975 60.5 65.1285V71.1855C60.5 71.5995 60.836 71.9355 61.25 71.9355Z"/>
</mask>
<path d="M61.25 71.9355C61.664 71.9355 62 71.5995 62 71.1855V65.493L67.0565 61.53C67.6895 61.026 68.537 60.0375 68.8685 59.2515L72.4385 50.952C72.479 50.859 72.5 50.757 72.5 50.655V43.4265C72.5 42.4935 71.4425 41.805 70.421 41.6805C69.155 41.517 67.5635 42.2055 66.9635 44.601C66.6545 45.8445 66.5855 46.896 66.524 47.823C66.4955 48.2355 66.8075 48.624 67.2215 48.651C67.6355 48.6795 67.991 48.396 68.0165 47.9835C68.078 47.0565 68.1425 46.077 68.42 44.9625C68.609 44.2095 69.014 43.284 69.8795 43.1685C70.4585 43.086 70.943 43.3965 71.0225 43.5375L71 50.5005L67.4885 58.665C67.2695 59.1885 66.5885 59.985 66.1265 60.354L60.7865 64.539C60.605 64.68 60.5 64.8975 60.5 65.1285V71.1855C60.5 71.5995 60.836 71.9355 61.25 71.9355Z" fill="#6425D3"/>
<path d="M62 65.493L58.9157 61.5577L57 63.0591V65.493H62ZM67.0565 61.53L70.1408 65.4654L70.1559 65.4536L70.1709 65.4416L67.0565 61.53ZM68.8685 59.2515L64.2754 57.2758L64.2684 57.2921L64.2615 57.3085L68.8685 59.2515ZM72.4385 50.952L67.8543 48.9557L67.8498 48.966L67.8454 48.9763L72.4385 50.952ZM70.421 41.6805L69.7806 46.6394L69.7983 46.6416L69.8161 46.6438L70.421 41.6805ZM66.9635 44.601L62.1133 43.3862L62.1111 43.3953L66.9635 44.601ZM66.524 47.823L71.5121 48.1677L71.513 48.154L66.524 47.823ZM67.2215 48.651L67.5649 43.6628L67.5559 43.6622L67.5469 43.6616L67.2215 48.651ZM68.0165 47.9835L63.0275 47.6526L63.0267 47.6638L63.026 47.675L68.0165 47.9835ZM68.42 44.9625L63.5704 43.7453L63.5681 43.7545L68.42 44.9625ZM69.8795 43.1685L70.5409 48.1246L70.5629 48.1217L70.5848 48.1185L69.8795 43.1685ZM71.0225 43.5375L76.0225 43.5537L76.0267 42.2326L75.3779 41.0818L71.0225 43.5375ZM71 50.5005L75.5932 52.476L75.9967 51.5379L76 50.5167L71 50.5005ZM67.4885 58.665L62.8953 56.6895L62.8855 56.7124L62.8759 56.7354L67.4885 58.665ZM66.1265 60.354L69.2107 64.2895L69.2289 64.2752L69.2469 64.2609L66.1265 60.354ZM60.7865 64.539L63.8539 68.4876L63.8623 68.481L63.8707 68.4745L60.7865 64.539ZM61.25 76.9355C64.4254 76.9355 67 74.361 67 71.1855H57C57 68.8381 58.9026 66.9355 61.25 66.9355V76.9355ZM67 71.1855V65.493H57V71.1855H67ZM65.0843 69.4284L70.1408 65.4654L63.9722 57.5947L58.9157 61.5577L65.0843 69.4284ZM70.1709 65.4416C71.26 64.5744 72.733 62.9552 73.4755 61.1946L64.2615 57.3085C64.294 57.2314 64.3193 57.1834 64.3288 57.1659C64.339 57.1473 64.3408 57.1456 64.3311 57.1607C64.3097 57.194 64.2653 57.2572 64.1979 57.34C64.1318 57.4213 64.0628 57.4975 64.0025 57.5585C63.9377 57.6241 63.9139 57.6409 63.9421 57.6185L70.1709 65.4416ZM73.4616 61.2272L77.0316 52.9277L67.8454 48.9763L64.2754 57.2758L73.4616 61.2272ZM77.0227 52.9484C77.3414 52.2165 77.5 51.434 77.5 50.655H67.5C67.5 50.0801 67.6166 49.5016 67.8543 48.9557L77.0227 52.9484ZM77.5 50.655V43.4265H67.5V50.655H77.5ZM77.5 43.4265C77.5 40.9215 76.0697 39.2012 74.9093 38.3005C73.7401 37.393 72.3502 36.8787 71.0259 36.7173L69.8161 46.6438C69.5133 46.6069 69.1629 46.4991 68.7778 46.2002C68.4016 45.9082 67.5 44.9986 67.5 43.4265H77.5ZM71.0614 36.7217C69.2887 36.4928 67.2828 36.8641 65.5349 38.1135C63.7618 39.3809 62.6443 41.2664 62.1133 43.3862L71.8137 45.8159C71.8827 45.5402 71.8609 45.8837 71.3501 46.2489C70.8645 46.596 70.2873 46.7048 69.7806 46.6394L71.0614 36.7217ZM62.1111 43.3953C61.684 45.114 61.5966 46.5635 61.535 47.4921L71.513 48.154C71.5744 47.2286 71.625 46.5751 71.8159 45.8068L62.1111 43.3953ZM61.5359 47.4784C61.3335 50.4083 63.4801 53.4177 66.8961 53.6404L67.5469 43.6616C70.1349 43.8304 71.6575 46.0628 71.5121 48.1677L61.5359 47.4784ZM66.8781 53.6392C69.779 53.8389 72.7933 51.748 73.007 48.292L63.026 47.675C63.1887 45.0441 65.492 43.5201 67.5649 43.6628L66.8781 53.6392ZM73.0055 48.3145C73.0683 47.3691 73.115 46.8007 73.2719 46.1706L63.5681 43.7545C63.17 45.3533 63.0877 46.744 63.0275 47.6526L73.0055 48.3145ZM73.2696 46.1798C73.2963 46.0732 73.2634 46.2986 73.0199 46.6538C72.732 47.0738 71.9367 47.9383 70.5409 48.1246L69.2181 38.2125C66.9568 38.5143 65.5263 39.8993 64.7722 40.9991C64.0626 42.0342 63.7327 43.0989 63.5704 43.7453L73.2696 46.1798ZM70.5848 48.1185C69.8151 48.2282 69.1678 48.0736 68.7119 47.8832C68.4795 47.7862 68.2229 47.6499 67.9548 47.4553C67.8205 47.3578 67.6444 47.2175 67.452 47.0266C67.2886 46.8644 66.9637 46.5193 66.6671 45.9932L75.3779 41.0818C74.8294 40.109 74.0926 39.5538 73.8288 39.3623C73.4293 39.0724 73.0005 38.8372 72.5647 38.6552C71.7019 38.295 70.5229 38.0264 69.1742 38.2185L70.5848 48.1185ZM66.0225 43.5214L66 50.4844L76 50.5167L76.0225 43.5537L66.0225 43.5214ZM66.4068 48.525L62.8953 56.6895L72.0817 60.6405L75.5932 52.476L66.4068 48.525ZM62.8759 56.7354C62.9363 56.5909 62.9901 56.4897 63.0191 56.4377C63.0498 56.3826 63.0712 56.3498 63.0775 56.3402C63.0879 56.3245 63.0751 56.345 63.036 56.3925C62.9989 56.4377 62.9615 56.4787 62.9348 56.5059C62.9226 56.5184 62.9193 56.5211 62.9261 56.5148C62.9316 56.5098 62.9584 56.4853 63.0061 56.4472L69.2469 64.2609C69.8294 63.7956 70.36 63.2306 70.7612 62.7424C71.1201 62.3059 71.7099 61.53 72.1011 60.5947L62.8759 56.7354ZM63.0423 56.4186L57.7023 60.6036L63.8707 68.4745L69.2107 64.2895L63.0423 56.4186ZM57.7191 60.5905C56.298 61.6945 55.5 63.3795 55.5 65.1285H65.5C65.5 66.4156 64.912 67.6656 63.8539 68.4876L57.7191 60.5905ZM55.5 65.1285V71.1855H65.5V65.1285H55.5ZM55.5 71.1855C55.5 74.361 58.0746 76.9355 61.25 76.9355V66.9355C63.5974 66.9355 65.5 68.8381 65.5 71.1855H55.5Z" fill="#6425D3" mask="url(#path-2-inside-1_8175_18281)"/>
<path d="M33.3423 46.2747C33.4099 46.8268 33.4437 47.3368 33.4754 47.8138L33.476 47.823C33.4774 47.8436 33.478 47.864 33.4778 47.8844C33.4777 47.8867 33.4777 47.8889 33.4776 47.8912C33.4697 48.2774 33.1696 48.6255 32.7785 48.651C32.3645 48.6795 32.009 48.396 31.9835 47.9835L31.9831 47.977C31.9819 47.9601 31.9808 47.9433 31.9797 47.9264C31.9796 47.9251 31.9795 47.9237 31.9794 47.9223C31.9466 47.4285 31.9117 46.9193 31.8431 46.3823C32.0607 46.2582 32.3165 46.1772 32.6068 46.1569C32.6098 46.1567 32.6128 46.1565 32.6158 46.1563L32.6158 46.1563L32.6068 46.1569C32.6098 46.1567 32.6128 46.1565 32.6158 46.1564C32.8547 46.1413 33.1052 46.1823 33.3423 46.2747Z" fill="#6425D3" stroke="#6425D3" stroke-width="5"/>
<mask id="path-5-inside-2_8175_18281" fill="white">
<path d="M47.7507 71.9356C47.3367 71.9356 47.0007 71.5996 47.0007 71.1856V62.9911C47.0007 59.8306 44.8182 57.0751 41.6922 56.2891C41.2902 56.1886 41.0472 55.7806 41.1477 55.3786C41.2482 54.9781 41.6487 54.7291 42.0582 54.8341C45.8502 55.7881 48.5007 59.1421 48.5007 62.9911V71.1856C48.5007 71.5996 48.1647 71.9356 47.7507 71.9356Z"/>
</mask>
<path d="M47.7507 71.9356C47.3367 71.9356 47.0007 71.5996 47.0007 71.1856V62.9911C47.0007 59.8306 44.8182 57.0751 41.6922 56.2891C41.2902 56.1886 41.0472 55.7806 41.1477 55.3786C41.2482 54.9781 41.6487 54.7291 42.0582 54.8341C45.8502 55.7881 48.5007 59.1421 48.5007 62.9911V71.1856C48.5007 71.5996 48.1647 71.9356 47.7507 71.9356Z" fill="#6425D3"/>
<path d="M41.6922 56.2891L42.4237 53.3797L42.4198 53.3787L41.6922 56.2891ZM41.1477 55.3786L38.2379 54.6485L38.2372 54.651L41.1477 55.3786ZM42.0582 54.8341L41.313 57.7401L41.3262 57.7435L42.0582 54.8341ZM47.7507 68.9356C48.9935 68.9356 50.0007 69.9428 50.0007 71.1856H44.0007C44.0007 73.2565 45.6798 74.9356 47.7507 74.9356V68.9356ZM50.0007 71.1856V62.9911H44.0007V71.1856H50.0007ZM50.0007 62.9911C50.0007 58.4169 46.8455 54.4915 42.4237 53.3797L40.9606 59.1986C42.7909 59.6588 44.0007 61.2443 44.0007 62.9911H50.0007ZM42.4198 53.3787C43.6362 53.6828 44.3567 54.9119 44.0581 56.1062L38.2372 54.651C37.7377 56.6494 38.9442 58.6945 40.9646 59.1995L42.4198 53.3787ZM44.0575 56.1088C43.7634 57.2808 42.5543 58.0584 41.313 57.7401L42.8033 51.9281C40.743 51.3999 38.733 52.6754 38.2379 54.6485L44.0575 56.1088ZM41.3262 57.7435C43.8165 58.37 45.5007 60.5494 45.5007 62.9911H51.5007C51.5007 57.7348 47.8838 53.2063 42.7901 51.9248L41.3262 57.7435ZM45.5007 62.9911V71.1856H51.5007V62.9911H45.5007ZM45.5007 71.1856C45.5007 69.9428 46.5078 68.9356 47.7507 68.9356V74.9356C49.8215 74.9356 51.5007 73.2565 51.5007 71.1856H45.5007Z" fill="#6425D3" mask="url(#path-5-inside-2_8175_18281)"/>
<path d="M41.4406 56.014C41.5421 56.1157 41.6354 56.2223 41.7206 56.3331C41.5765 56.3067 41.4387 56.238 41.3274 56.1274L41.4406 56.014ZM41.4406 56.014L41.8565 55.5972L41.8578 55.5958L42.3874 55.065L42.0021 55.4504M41.4406 56.014C41.4404 56.0139 41.4403 56.0137 41.4401 56.0136L41.8561 55.5967L41.8574 55.5954L42.0021 55.4504M42.0021 55.4504L42.3871 55.0645L42.3855 55.063L41.8566 55.5946L41.8553 55.596L41.6182 55.8343M42.0021 55.4504L41.8572 55.5952L41.8559 55.5966L41.6182 55.8343M41.6182 55.8343L41.4395 56.013M41.6182 55.8343L41.44 56.0134C41.4398 56.0133 41.4397 56.0131 41.4395 56.013M41.4395 56.013C41.4393 56.0127 41.439 56.0124 41.4388 56.0122L41.4374 56.0109L40.2736 54.8488M41.4395 56.013L41.3262 56.1262L41.3255 56.1255L41.3243 56.1242L40.2073 55.0098C40.2267 54.9553 40.2488 54.9016 40.2736 54.8488M40.2736 54.8488C40.3566 54.673 40.4704 54.5081 40.6152 54.3622C40.6167 54.3607 40.6182 54.3592 40.6197 54.3577C40.81 54.1678 41.0317 54.0313 41.2672 53.9472L39.0058 51.6907L38.3301 52.3663L38.3301 52.3664L38.059 52.6375L38.0593 52.6378L40.2736 54.8488Z" fill="#6425D3" stroke="#6425D3" stroke-width="5"/>
<mask id="path-8-inside-3_8175_18281" fill="white">
<path d="M52.25 71.9354C51.836 71.9354 51.5 71.5994 51.5 71.1854V62.9909C51.5 59.1419 54.1505 55.7879 57.9425 54.8339C58.349 54.7289 58.751 54.9779 58.853 55.3784C58.952 55.7804 58.709 56.1884 58.3085 56.2889C55.1825 57.0749 53 59.8304 53 62.9909V71.1854C53 71.5994 52.664 71.9354 52.25 71.9354Z"/>
</mask>
<path d="M52.25 71.9354C51.836 71.9354 51.5 71.5994 51.5 71.1854V62.9909C51.5 59.1419 54.1505 55.7879 57.9425 54.8339C58.349 54.7289 58.751 54.9779 58.853 55.3784C58.952 55.7804 58.709 56.1884 58.3085 56.2889C55.1825 57.0749 53 59.8304 53 62.9909V71.1854C53 71.5994 52.664 71.9354 52.25 71.9354Z" fill="#6425D3"/>
<path d="M57.9425 54.8339L59.1624 59.6828L59.1777 59.6789L59.193 59.675L57.9425 54.8339ZM58.853 55.3784L63.7079 54.1828L63.7032 54.1635L63.6983 54.1444L58.853 55.3784ZM58.3085 56.2889L57.0915 51.4392L57.0893 51.4398L58.3085 56.2889ZM52.25 66.9354C54.5974 66.9354 56.5 68.838 56.5 71.1854H46.5C46.5 74.3608 49.0746 76.9354 52.25 76.9354V66.9354ZM56.5 71.1854V62.9909H46.5V71.1854H56.5ZM56.5 62.9909C56.5 61.4874 57.5399 60.091 59.1624 59.6828L56.7226 49.985C50.7611 51.4848 46.5 56.7963 46.5 62.9909H56.5ZM59.193 59.675C56.8333 60.2845 54.5667 58.8074 54.0077 56.6124L63.6983 54.1444C62.9353 51.1483 59.8647 49.1733 56.692 49.9928L59.193 59.675ZM53.9981 56.574C53.4463 54.3334 54.7917 52.0164 57.0915 51.4392L59.5255 61.1385C62.6263 60.3604 64.4577 57.2273 63.7079 54.1828L53.9981 56.574ZM57.0893 51.4398C51.8037 52.7688 48 57.4742 48 62.9909H58C58 62.1866 58.5613 61.3809 59.5277 61.1379L57.0893 51.4398ZM48 62.9909V71.1854H58V62.9909H48ZM48 71.1854C48 68.838 49.9026 66.9354 52.25 66.9354V76.9354C55.4254 76.9354 58 74.3608 58 71.1854H48Z" fill="#6425D3" mask="url(#path-8-inside-3_8175_18281)"/>
<mask id="path-10-inside-4_8175_18281" fill="white">
<path d="M60.8575 59.061C60.6655 59.061 60.4735 58.9875 60.3265 58.842C60.034 58.548 60.034 58.074 60.3265 57.78L66.3295 51.786C65.0305 50.8905 63.5905 51.216 62.053 52.752L58.6705 56.127C58.378 56.418 57.9025 56.4195 57.61 56.1255C57.3175 55.833 57.3175 55.3575 57.61 55.065L60.9925 51.69C63.361 49.3215 65.9035 49.1475 67.966 51.21C68.107 51.351 68.185 51.5415 68.185 51.741C68.185 51.9405 68.1055 52.131 67.966 52.272L61.3855 58.842C61.2415 58.9875 61.0495 59.061 60.8575 59.061Z"/>
</mask>
<path d="M60.8575 59.061C60.6655 59.061 60.4735 58.9875 60.3265 58.842C60.034 58.548 60.034 58.074 60.3265 57.78L66.3295 51.786C65.0305 50.8905 63.5905 51.216 62.053 52.752L58.6705 56.127C58.378 56.418 57.9025 56.4195 57.61 56.1255C57.3175 55.833 57.3175 55.3575 57.61 55.065L60.9925 51.69C63.361 49.3215 65.9035 49.1475 67.966 51.21C68.107 51.351 68.185 51.5415 68.185 51.741C68.185 51.9405 68.1055 52.131 67.966 52.272L61.3855 58.842C61.2415 58.9875 61.0495 59.061 60.8575 59.061Z" fill="#6425D3"/>
<path d="M60.3265 58.842L56.7819 62.3684L56.7955 62.3821L56.8091 62.3956L60.3265 58.842ZM60.3265 57.78L56.7936 54.2418L56.7878 54.2476L56.7819 54.2535L60.3265 57.78ZM66.3295 51.786L69.8624 55.3242L74.1137 51.0792L69.1674 47.6694L66.3295 51.786ZM62.053 52.752L65.5846 56.2914L65.5868 56.2892L62.053 52.752ZM58.6705 56.127L62.1969 59.6716L62.2021 59.6664L58.6705 56.127ZM57.61 56.1255L61.1546 52.599L61.1455 52.5899L57.61 56.1255ZM57.61 55.065L54.0784 51.5255L54.0745 51.5294L57.61 55.065ZM60.9925 51.69L64.5241 55.2294L64.528 55.2255L60.9925 51.69ZM67.966 52.272L71.4987 55.8103L71.5096 55.7995L71.5204 55.7885L67.966 52.272ZM61.3855 58.842L57.8528 55.3036L57.8422 55.3142L57.8317 55.3248L61.3855 58.842ZM60.8575 54.061C61.9413 54.061 63.0257 54.4785 63.8439 55.2884L56.8091 62.3956C57.9213 63.4964 59.3897 64.061 60.8575 64.061V54.061ZM63.8711 55.3155C65.5191 56.972 65.5191 59.6499 63.8711 61.3064L56.7819 54.2535C54.5489 56.498 54.5489 60.1239 56.7819 62.3684L63.8711 55.3155ZM63.8594 61.3182L69.8624 55.3242L62.7966 48.2478L56.7936 54.2418L63.8594 61.3182ZM69.1674 47.6694C67.462 46.4937 65.3623 45.9868 63.1788 46.4801C61.2029 46.9265 59.6563 48.0787 58.5192 49.2147L65.5868 56.2892C65.9872 55.8892 65.9293 56.1107 65.3825 56.2342C65.077 56.3033 64.7014 56.3199 64.3066 56.2374C63.9201 56.1566 63.645 56.0083 63.4916 55.9026L69.1674 47.6694ZM58.5214 49.2125L55.1389 52.5875L62.2021 59.6664L65.5846 56.2914L58.5214 49.2125ZM55.1441 52.5824C56.792 50.9428 59.4825 50.9183 61.1546 52.599L54.0654 59.6519C56.3225 61.9206 59.964 61.8931 62.1969 59.6716L55.1441 52.5824ZM61.1455 52.5899C62.8057 54.2501 62.8057 56.9404 61.1455 58.6005L54.0745 51.5294C51.8293 53.7746 51.8293 57.4159 54.0745 59.661L61.1455 52.5899ZM61.1416 58.6044L64.5241 55.2294L57.4609 48.1505L54.0784 51.5255L61.1416 58.6044ZM64.528 55.2255C64.8321 54.9214 65.037 54.7939 65.1168 54.752C65.188 54.7146 65.1218 54.7639 64.9368 54.7766C64.8476 54.7827 64.7498 54.7787 64.6503 54.762C64.5511 54.7454 64.4691 54.7193 64.4084 54.6939C64.2857 54.6425 64.3017 54.6167 64.4305 54.7455L71.5015 47.6744C69.6538 45.8267 67.1494 44.6009 64.2512 44.8001C61.4846 44.9902 59.188 46.4234 57.457 48.1544L64.528 55.2255ZM64.4305 54.7455C63.6226 53.9376 63.185 52.8517 63.185 51.741H73.185C73.185 50.2313 72.5914 48.7643 71.5015 47.6744L64.4305 54.7455ZM63.185 51.741C63.185 50.6075 63.6364 49.5389 64.4116 48.7554L71.5204 55.7885C72.5746 54.723 73.185 53.2735 73.185 51.741H63.185ZM64.4333 48.7336L57.8528 55.3036L64.9182 62.3803L71.4987 55.8103L64.4333 48.7336ZM57.8317 55.3248C58.6741 54.4736 59.7832 54.061 60.8575 54.061V64.061C62.3158 64.061 63.8089 63.5013 64.9393 62.3591L57.8317 55.3248Z" fill="#6425D3" mask="url(#path-10-inside-4_8175_18281)"/>
<mask id="path-12-inside-5_8175_18281" fill="white">
<path d="M60.8575 59.061C60.6655 59.061 60.4735 58.9875 60.3265 58.842C60.034 58.548 60.034 58.074 60.3265 57.78L66.3295 51.786C65.0305 50.8905 63.5905 51.216 62.053 52.752L58.6705 56.127C58.378 56.418 57.9025 56.4195 57.61 56.1255C57.3175 55.833 57.3175 55.3575 57.61 55.065L60.9925 51.69C63.361 49.3215 65.9035 49.1475 67.966 51.21C68.107 51.351 68.185 51.5415 68.185 51.741C68.185 51.9405 68.1055 52.131 67.966 52.272L61.3855 58.842C61.2415 58.9875 61.0495 59.061 60.8575 59.061Z"/>
</mask>
<path d="M60.8575 59.061C60.6655 59.061 60.4735 58.9875 60.3265 58.842C60.034 58.548 60.034 58.074 60.3265 57.78L66.3295 51.786C65.0305 50.8905 63.5905 51.216 62.053 52.752L58.6705 56.127C58.378 56.418 57.9025 56.4195 57.61 56.1255C57.3175 55.833 57.3175 55.3575 57.61 55.065L60.9925 51.69C63.361 49.3215 65.9035 49.1475 67.966 51.21C68.107 51.351 68.185 51.5415 68.185 51.741C68.185 51.9405 68.1055 52.131 67.966 52.272L61.3855 58.842C61.2415 58.9875 61.0495 59.061 60.8575 59.061Z" fill="#6425D3"/>
<path d="M60.3265 58.842L56.7819 62.3684L56.7955 62.3821L56.8091 62.3956L60.3265 58.842ZM60.3265 57.78L56.7936 54.2418L56.7878 54.2476L56.7819 54.2535L60.3265 57.78ZM66.3295 51.786L69.8624 55.3242L74.1137 51.0792L69.1674 47.6694L66.3295 51.786ZM62.053 52.752L65.5846 56.2914L65.5868 56.2892L62.053 52.752ZM58.6705 56.127L62.1969 59.6716L62.2021 59.6664L58.6705 56.127ZM57.61 56.1255L61.1546 52.599L61.1455 52.5899L57.61 56.1255ZM57.61 55.065L54.0784 51.5255L54.0745 51.5294L57.61 55.065ZM60.9925 51.69L64.5241 55.2294L64.528 55.2255L60.9925 51.69ZM67.966 52.272L71.4987 55.8103L71.5096 55.7995L71.5204 55.7885L67.966 52.272ZM61.3855 58.842L57.8528 55.3036L57.8422 55.3142L57.8317 55.3248L61.3855 58.842ZM60.8575 54.061C61.9413 54.061 63.0257 54.4785 63.8439 55.2884L56.8091 62.3956C57.9213 63.4964 59.3897 64.061 60.8575 64.061V54.061ZM63.8711 55.3155C65.5191 56.972 65.5191 59.6499 63.8711 61.3064L56.7819 54.2535C54.5489 56.498 54.5489 60.1239 56.7819 62.3684L63.8711 55.3155ZM63.8594 61.3182L69.8624 55.3242L62.7966 48.2478L56.7936 54.2418L63.8594 61.3182ZM69.1674 47.6694C67.462 46.4937 65.3623 45.9868 63.1788 46.4801C61.2029 46.9265 59.6563 48.0787 58.5192 49.2147L65.5868 56.2892C65.9872 55.8892 65.9293 56.1107 65.3825 56.2342C65.077 56.3033 64.7014 56.3199 64.3066 56.2374C63.9201 56.1566 63.645 56.0083 63.4916 55.9026L69.1674 47.6694ZM58.5214 49.2125L55.1389 52.5875L62.2021 59.6664L65.5846 56.2914L58.5214 49.2125ZM55.1441 52.5824C56.792 50.9428 59.4825 50.9183 61.1546 52.599L54.0654 59.6519C56.3225 61.9206 59.964 61.8931 62.1969 59.6716L55.1441 52.5824ZM61.1455 52.5899C62.8057 54.2501 62.8057 56.9404 61.1455 58.6005L54.0745 51.5294C51.8293 53.7746 51.8293 57.4159 54.0745 59.661L61.1455 52.5899ZM61.1416 58.6044L64.5241 55.2294L57.4609 48.1505L54.0784 51.5255L61.1416 58.6044ZM64.528 55.2255C64.8321 54.9214 65.037 54.7939 65.1168 54.752C65.188 54.7146 65.1218 54.7639 64.9368 54.7766C64.8476 54.7827 64.7498 54.7787 64.6503 54.762C64.5511 54.7454 64.4691 54.7193 64.4084 54.6939C64.2857 54.6425 64.3017 54.6167 64.4305 54.7455L71.5015 47.6744C69.6538 45.8267 67.1494 44.6009 64.2512 44.8001C61.4846 44.9902 59.188 46.4234 57.457 48.1544L64.528 55.2255ZM64.4305 54.7455C63.6226 53.9376 63.185 52.8517 63.185 51.741H73.185C73.185 50.2313 72.5914 48.7643 71.5015 47.6744L64.4305 54.7455ZM63.185 51.741C63.185 50.6075 63.6364 49.5389 64.4116 48.7554L71.5204 55.7885C72.5746 54.723 73.185 53.2735 73.185 51.741H63.185ZM64.4333 48.7336L57.8528 55.3036L64.9182 62.3803L71.4987 55.8103L64.4333 48.7336ZM57.8317 55.3248C58.6741 54.4736 59.7832 54.061 60.8575 54.061V64.061C62.3158 64.061 63.8089 63.5013 64.9393 62.3591L57.8317 55.3248Z" fill="#6425D3" mask="url(#path-12-inside-5_8175_18281)"/>
<mask id="path-14-inside-6_8175_18281" fill="white">
<path d="M53.2992 44.1091C52.8927 44.1091 52.4862 44.0761 52.0797 44.0086C50.1387 43.6861 48.4377 42.6256 47.2902 41.0206C46.1427 39.4156 45.6897 37.4626 46.0107 35.5216C46.2372 34.1656 47.5212 33.2431 48.8802 33.4711C50.2362 33.6961 51.1572 34.9846 50.9307 36.3406C50.8407 36.8806 50.9427 37.4401 51.2127 37.9126C51.4197 38.2726 51.2952 38.7301 50.9352 38.9371C50.5797 39.1396 50.1192 39.0196 49.9107 38.6596C49.4682 37.8886 49.3047 36.9781 49.4487 36.0961C49.5387 35.5546 49.1712 35.0401 48.6312 34.9501C48.0882 34.8646 47.5767 35.2261 47.4867 35.7676C47.2302 37.3126 47.5917 38.8681 48.5067 40.1476C49.4217 41.4271 50.7777 42.2731 52.3227 42.5296C52.7472 42.5986 53.1777 42.6256 53.5977 42.6016C54.0192 42.5926 54.3657 42.8986 54.3852 43.3111C54.4077 43.7251 54.0897 44.0776 53.6757 44.1001C53.5542 44.1061 53.4267 44.1091 53.2992 44.1091Z"/>
</mask>
<path d="M53.2992 44.1091C52.8927 44.1091 52.4862 44.0761 52.0797 44.0086C50.1387 43.6861 48.4377 42.6256 47.2902 41.0206C46.1427 39.4156 45.6897 37.4626 46.0107 35.5216C46.2372 34.1656 47.5212 33.2431 48.8802 33.4711C50.2362 33.6961 51.1572 34.9846 50.9307 36.3406C50.8407 36.8806 50.9427 37.4401 51.2127 37.9126C51.4197 38.2726 51.2952 38.7301 50.9352 38.9371C50.5797 39.1396 50.1192 39.0196 49.9107 38.6596C49.4682 37.8886 49.3047 36.9781 49.4487 36.0961C49.5387 35.5546 49.1712 35.0401 48.6312 34.9501C48.0882 34.8646 47.5767 35.2261 47.4867 35.7676C47.2302 37.3126 47.5917 38.8681 48.5067 40.1476C49.4217 41.4271 50.7777 42.2731 52.3227 42.5296C52.7472 42.5986 53.1777 42.6256 53.5977 42.6016C54.0192 42.5926 54.3657 42.8986 54.3852 43.3111C54.4077 43.7251 54.0897 44.0776 53.6757 44.1001C53.5542 44.1061 53.4267 44.1091 53.2992 44.1091Z" fill="#6425D3"/>
<path d="M52.0797 44.0086L51.2602 48.941L51.2607 48.9411L52.0797 44.0086ZM46.0107 35.5216L41.079 34.6979L41.0777 34.7058L46.0107 35.5216ZM48.8802 33.4711L48.0529 38.4022L48.0618 38.4037L48.8802 33.4711ZM50.9307 36.3406L45.999 35.5169L45.9988 35.5186L50.9307 36.3406ZM51.2127 37.9126L46.8715 40.3933L46.8782 40.405L51.2127 37.9126ZM50.9352 38.9371L53.41 43.2817L53.4188 43.2767L53.4276 43.2717L50.9352 38.9371ZM49.9107 38.6596L45.5742 41.1485L45.5791 41.157L45.584 41.1655L49.9107 38.6596ZM49.4487 36.0961L44.5164 35.2764L44.5152 35.2834L44.5141 35.2905L49.4487 36.0961ZM48.6312 34.9501L49.4532 30.0182L49.4311 30.0145L49.4089 30.011L48.6312 34.9501ZM47.4867 35.7676L42.5544 34.9479L42.5542 34.9488L47.4867 35.7676ZM52.3227 42.5296L51.5038 47.4621L51.5122 47.4635L51.5205 47.4649L52.3227 42.5296ZM53.5977 42.6016L53.491 37.6028L53.4017 37.6047L53.3125 37.6098L53.5977 42.6016ZM54.3852 43.3111L49.3908 43.5472L49.3916 43.5649L49.3926 43.5825L54.3852 43.3111ZM53.6757 44.1001L53.9223 49.0941L53.9347 49.0934L53.9471 49.0928L53.6757 44.1001ZM53.2992 39.1091C53.1647 39.1091 53.0322 39.0983 52.8988 39.0762L51.2607 48.9411C51.9402 49.0539 52.6207 49.1091 53.2992 49.1091V39.1091ZM52.8992 39.0763C52.2688 38.9715 51.7352 38.6408 51.3576 38.1127L43.2228 43.9286C45.1403 46.6105 48.0086 48.4008 51.2602 48.941L52.8992 39.0763ZM51.3576 38.1127C50.9804 37.5851 50.8389 36.9713 50.9437 36.3375L41.0777 34.7058C40.5406 37.954 41.305 41.2462 43.2228 43.9286L51.3576 38.1127ZM50.9424 36.3454C50.7164 37.6986 49.4345 38.634 48.0529 38.4022L49.7075 28.5401C45.6079 27.8523 41.7581 30.6327 41.079 34.6979L50.9424 36.3454ZM48.0618 38.4037C46.6921 38.1764 45.7702 36.8872 45.999 35.5169L55.8624 37.1644C56.5443 33.0821 53.7804 29.2159 49.6987 28.5386L48.0618 38.4037ZM45.9988 35.5186C45.718 37.2034 46.0345 38.9285 46.8715 40.3933L55.5539 35.4319C55.851 35.9518 55.9635 36.5579 55.8627 37.1626L45.9988 35.5186ZM46.8782 40.405C45.7025 38.3603 46.4198 35.7659 48.4429 34.6026L53.4276 43.2717C56.1707 41.6944 57.1369 38.185 55.5473 35.4203L46.8782 40.405ZM48.4605 34.5925C50.472 33.4468 53.0573 34.1161 54.2374 36.1538L45.584 41.1655C47.1811 43.9231 50.6875 44.8325 53.41 43.2817L48.4605 34.5925ZM54.2473 36.1708C54.382 36.4055 54.4229 36.6597 54.3834 36.9018L44.5141 35.2905C44.1865 37.2966 44.5545 39.3718 45.5742 41.1485L54.2473 36.1708ZM54.3811 36.9159C54.9227 33.6573 52.7223 30.563 49.4532 30.0182L47.8092 39.8821C45.6202 39.5173 44.1548 37.452 44.5164 35.2764L54.3811 36.9159ZM49.4089 30.011C46.2127 29.5077 43.104 31.641 42.5544 34.9479L52.4191 36.5874C52.0494 38.8113 49.9637 40.2216 47.8535 39.8893L49.4089 30.011ZM42.5542 34.9488C42.0799 37.8056 42.7556 40.7012 44.4397 43.0561L52.5738 37.2392C52.4278 37.0351 52.3805 36.8197 52.4192 36.5865L42.5542 34.9488ZM44.4397 43.0561C46.1231 45.4101 48.6454 46.9876 51.5038 47.4621L53.1416 37.5972C52.91 37.5587 52.7203 37.4442 52.5738 37.2392L44.4397 43.0561ZM51.5205 47.4649C52.2639 47.5857 53.0607 47.6405 53.883 47.5935L53.3125 37.6098C53.2947 37.6108 53.2306 37.6116 53.1249 37.5944L51.5205 47.4649ZM53.7045 47.6005C51.611 47.6452 49.5083 46.0339 49.3908 43.5472L59.3796 43.075C59.2231 39.7634 56.4274 37.5401 53.491 37.6028L53.7045 47.6005ZM49.3926 43.5825C49.2643 41.2224 51.0778 39.234 53.4044 39.1075L53.9471 49.0928C57.1016 48.9213 59.5511 46.2279 59.3779 43.0398L49.3926 43.5825ZM53.4291 39.1062C53.3954 39.1079 53.3503 39.1091 53.2992 39.1091V49.1091C53.5031 49.1091 53.713 49.1044 53.9223 49.0941L53.4291 39.1062Z" fill="#6425D3" mask="url(#path-14-inside-6_8175_18281)"/>
<path d="M37.225 40.284C37.2219 40.2861 37.2188 40.2882 37.2158 40.2902C37.213 40.2921 37.2103 40.2939 37.2075 40.2958C36.6695 40.6601 36.322 41.2257 36.2012 41.9348L36.9383 42.0622L37.6817 42.1867C37.7511 41.783 37.9259 41.6248 38.0515 41.5395C38.0526 41.5388 38.0536 41.5382 38.0546 41.5375L37.225 40.284ZM37.225 40.284C37.4816 40.1142 37.7593 40.0027 38.0338 39.9324L39.5592 40.9847C39.4623 41.185 39.3886 41.3017 39.3458 41.3623C39.2603 41.3493 39.1533 41.3378 39.0353 41.3331C38.7218 41.3206 38.3303 41.3558 38.0564 41.5363L37.225 40.284ZM37.681 42.1905L37.2411 42.1145L37.6813 42.1889C37.6812 42.1895 37.6811 42.19 37.681 42.1905ZM38.9169 43.8309C38.9171 43.8309 38.9172 43.8309 38.9174 43.8309C38.9156 43.831 38.9147 43.831 38.9148 43.831C38.9148 43.831 38.9155 43.8309 38.9169 43.8309ZM39.469 41.385C39.441 41.3787 39.4065 41.372 39.3667 41.3656L39.5942 41.4029C39.5603 41.4008 39.526 41.3965 39.4917 41.3898C39.4915 41.3898 39.4912 41.3897 39.491 41.3897C39.4837 41.3882 39.4764 41.3867 39.469 41.385Z" fill="#6425D3" stroke="#6425D3" stroke-width="5"/>
</svg>
